<svg xmlns="http://www.w3.org/2000/svg" width="360" height="260" viewBox="0 0 360 260" fill="none"><rect x="28" y="20" width="304" height="210" rx="48" fill="#ECFDF5"/><ellipse cx="180" cy="224" rx="130" ry="20" fill="#D1FAE5"/><circle cx="126" cy="92" r="26" fill="#FBC89B"/><path d="M92 190C95 146 107 122 126 122C148 122 160 150 164 190" fill="#10B981"/><path d="M105 73C111 50 145 54 150 76C138 66 121 66 105 73Z" fill="#2D1B12"/><circle cx="232" cy="94" r="24" fill="#FBC89B"/><path d="M198 190C202 148 214 124 232 124C252 124 266 150 270 190" fill="#10B981"/><path d="M211 72C224 52 252 61 254 87C244 75 228 70 211 72Z" fill="#2D1B12"/><circle cx="178" cy="112" r="20" fill="#FBC89B"/><path d="M150 194C153 157 164 134 178 134C195 134 206 158 210 194" fill="#F59E0B"/><circle cx="284" cy="126" r="18" fill="#FBC89B"/><path d="M260 196C263 162 272 146 284 146C298 146 308 164 312 196" fill="#F59E0B"/><rect x="118" y="160" width="116" height="58" rx="8" fill="#CBD5E1"/><rect x="128" y="170" width="96" height="38" rx="6" fill="#F8FAFC"/></svg>